<svg version="1.0" xmlns="http://www.w3.org/2000/svg" fill="currentColor" viewBox="0 0 512 512"><g stroke-width="0"><path d="M6.4 182.6c1.5 5.9 10.4 24.4 15.1 31.4 4.2 6.3 5.9 8 10.6 10.3 6.9 3.5 23.5 6.9 46.3 9.7 23.8 2.9 24 2.9 24.4 6.2.2 1.8-.3 3-1.5 3.6-2.2 1.1-21.5-.8-41.8-4.3-7.7-1.3-14.2-2.2-14.4-1.9-.6.5 4.5 13.5 8.1 20.6 1.5 3.2 3.9 6.4 5.1 7.3 5.1 3.3 30.8 7.4 60.2 9.6 8.8.7 16.6 1.6 17.3 2.2.7.6 1.2 2.2 1 3.6l-.3 2.6-11.3-.2c-6.2-.1-19.2-1.2-29-2.3-9.7-1.1-18.1-2-18.5-2-1.6 0 4.8 10.4 9.5 15.6 2.9 3.1 6.7 6 9.8 7.3 9.8 4.2 27.3 7.6 54.5 10.6 17.2 1.9 25.2 3.5 42.2 8.3l13.2 3.8-5.7-6c-12.2-13.2-20-26.3-22.8-38.4-2.1-8.6-1.4-21.7 1.4-29l2-5.2-8.3-9.3c-12.8-14.4-17-17.3-30.1-20.6-9.9-2.5-24.9-4.5-52.9-7.1-12.1-1.1-27.4-3-34-4-14.1-2.3-21.7-5.7-39.4-17.4-10.2-6.8-11.2-7.3-10.7-5zm476.6 5c-14.5 9.7-25.4 14.9-35 16.8-4.1.8-17.2 2.4-29 3.6-45.5 4.4-59.7 6.6-71.3 11-4.4 1.6-7.5 4-13.5 9.8-4.2 4.3-9.3 9.7-11.4 12.2l-3.6 4.5 2.5 7.5c2.2 6.6 2.5 8.7 2.1 17.5-.4 8-1.1 11.5-3.5 17.6-3.7 9.4-10 19.1-18.8 28.6-3.7 4-6.4 7.3-6.2 7.3.3 0 3.3-.9 6.8-2 13.9-4.2 32.1-8 46.4-9.5 26.8-2.9 45.5-6.4 55.2-10.6 5.6-2.4 12.1-9.1 16.2-16.9l3.4-6.3-4.9.7c-9.9 1.4-32 3.6-43 4.2l-11.3.7-.7-2.7c-1.1-4.4.6-5.3 12.9-6 25.7-1.6 55.8-6 63.4-9.1 4.2-1.8 7.3-6.7 12.2-19.4l4-10.3-3.2.6c-16.2 3.3-51.1 7.8-53.4 6.9-.7-.3-1.5-1.3-1.8-2.3-1-3.2.5-4.9 4.8-5.4 2.3-.3 10.3-1.3 17.7-2.2 16.5-1.9 32.1-4.8 41.9-7.6 11.3-3.3 17-9.8 25.8-29.3 3.4-7.5 7.4-17.5 7-17.5-.1 0-5.4 3.5-11.7 7.6z"/><path d="M 208.2 232.5 c -8.1 2.5 -14.5 8.6 -19.4 18.5 c -3.1 6.1 -3.3 7 -3.2 17 c 0 8.1 0.5 11.8 2.2 16.4 c 5.9 16 24.4 36 47.9 51.6 c 7.3 5 14 9 14.7 9 c 2 0 17.7 -10.2 26.9 -17.4 c 10.2 -7.9 24.5 -22.7 29.3 -30.2 c 7.1 -11.2 8.8 -16.6 8.9 -28.9 c 0 -10.3 -0.2 -11.4 -3.2 -17.7 c -5.9 -12.4 -14.8 -18.7 -27.9 -19.6 c -10.9 -0.7 -20.6 2.6 -29.2 10 c -1.8 1.5 -3.8 2.8 -4.3 2.8 c -0.6 0 -3.8 -2 -7.1 -4.5 c -10.1 -7.6 -24.6 -10.5 -35.6 -7 z z"/></g></svg>