<?xml version="1.0" encoding="utf-8"?>
<!-- Generator: Adobe Illustrator 18.1.1, SVG Export Plug-In . SVG Version: 6.00 Build 0)  -->
<svg version="1.1" id="Layer_1" xmlns="http://www.w3.org/2000/svg" xmlns:xlink="http://www.w3.org/1999/xlink" x="0px" y="0px"
	 viewBox="0 0 1000 1000" enable-background="new 0 0 1000 1000" xml:space="preserve">
<g transform="matrix(0.31 0 0 0.31 12 12)">
	<g>
		<g transform="matrix(1 0 0 1 -1.5 6)">
			<path fill="#FF9538" d="M1059.3,652.2c0,0-461.7,499.6-461.7,1381.4c0,740,289,1058,554.1,1058c123.1,0,523.3-88.2,923.4-764.1
				c462.4-781.1,400.2-1146.2,400.2-1146.2L1059.3,652.2z"/>
		</g>
		<g transform="matrix(1 0 0 1 0.34 12.9)">
			<path fill="#FFAA60" d="M2455.3,1411.1c-36.1,187-132.6,487.4-382.2,909.2c-400,676.4-800.4,764.3-923.4,764.3
				c-120.4,0-246-65.6-346.6-207.3c82.7,10.4,204.6,5.8,349.5-42.5c57.2-19.1,332-19,701.9-644.1c245-414.2,327.3-691.7,354.2-844.1
				L2455.3,1411.1z"/>
		</g>
		<g transform="matrix(1 0 0 1 1.44 13.24)">
			<path fill="#FFAA60" d="M2181.7,1680.7c-5.7,0-11.5-1-17.2-3l-95.6-34.4c-26.4-9.5-40.1-38.6-30.6-65
				c9.6-26.4,38.5-40.1,65.1-30.6l95.6,34.4c26.4,9.5,40.1,38.6,30.6,65C2222,1667.8,2202.5,1680.7,2181.7,1680.7z M2078.9,1926.5
				c-7.3,0-14.6-1.5-21.6-4.8l-92-43.3c-25.4-11.9-36.3-42.2-24.3-67.6c11.9-25.4,42.1-36.3,67.6-24.3l92,43.3
				c25.4,11.9,36.3,42.2,24.3,67.6C2116.3,1915.7,2098,1926.5,2078.9,1926.5z M1957.4,2162.1c-8.4,0-16.9-2.1-24.6-6.4l-88.8-49.4
				c-24.5-13.7-33.3-44.6-19.7-69.1c13.7-24.5,44.8-33.3,69.1-19.7l88.8,49.4c24.5,13.7,33.3,44.6,19.7,69.1
				C1992.6,2152.7,1975.3,2162.1,1957.4,2162.1z M1819.9,2389.6c-9.7,0-19.5-2.8-28.2-8.6l-84.5-56.5c-23.3-15.6-29.6-47.2-14-70.5
				c15.6-23.4,47.2-29.6,70.5-14l84.5,56.5c23.3,15.6,29.6,47.2,14,70.5C1852.4,2381.6,1836.3,2389.6,1819.9,2389.6z M1657.2,2602.6
				c-11.9,0-23.9-4.2-33.5-12.7l-76.3-67.1c-21.1-18.5-23.1-50.7-4.6-71.7c18.6-21.1,50.8-23.1,71.7-4.6l76.3,67.1
				c21.1,18.5,23.1,50.7,4.6,71.7C1685.3,2596.9,1671.3,2602.6,1657.2,2602.6z M1460.3,2789.4c-15.4,0-30.5-6.9-40.6-20.1l-61.4-81
				c-17-22.4-12.6-54.2,9.8-71.2s54.2-12.6,71.2,9.8l61.4,81c17,22.4,12.6,54.2-9.8,71.2C1481.8,2786,1471,2789.4,1460.3,2789.4z
				 M1213.4,2920.1c-22.3,0-42.7-14.8-48.9-37.3l-27.1-98c-7.5-27,8.4-55,35.4-62.5c26.8-7.3,55,8.4,62.5,35.4l27.1,98
				c7.5,27-8.4,55-35.4,62.5C1222.5,2919.5,1217.9,2920.1,1213.4,2920.1z"/>
		</g>
		<g transform="matrix(1 0 0 1 1.5 -13)">
			<path fill="#4BBF2B" d="M2170.1,569.5c-203.3,0-304.9,50.8-304.9,50.8C1745.6,380.1,1653,264.6,1354,264.6
				c-538.1,0-708.5,411.2-708.5,531.3c0,41.9,74.8,78.5,254.1,78.5s406.6-50.8,406.6-50.8c-34.3,68.7-50.8,152.5-50.8,254.1
				c0,254.1,152.5,457.4,355.7,457.4c304.9,0,457.4-355.7,457.4-355.7s355.7,406.6,481.3,406.6c119.6,0,179.3-180.2,179.3-420.4
				C2729.1,985.3,2588.6,569.5,2170.1,569.5z"/>
		</g>
		<g transform="matrix(1 0 0 1 18.09 -8.77)">
			<path fill="#64FF39" d="M2722.2,1169.2c0,239.9-60,420.3-179.4,420.3c-40.7,0-106.2-43.2-175.8-101.6
				c32.5-120.4,50.3-248.5,50.3-381.2c0-180.9-32.5-353.2-92-509.7C2619,686.9,2722.2,1014.7,2722.2,1169.2z"/>
		</g>
		<g transform="matrix(1 0 0 1 -14 -4.02)">
			<path fill="#FFAA60" d="M964.9,1511.2c-6.7,41.6-45.8,69.9-87.4,63.2c-41.6-6.7-69.4-45.7-63.2-87.4
				c23.4-156.7,146.2-318.7,202.3-316.6C944.4,1310,976.2,1440.7,964.9,1511.2z"/>
		</g>
		<g transform="matrix(1 0 0 1 -7.59 -14.04)">
			<path fill="#64FF39" d="M1000.6,735.7c-21.3,36.3-68.1,48.4-104.4,27c-36.3-21.3-48.4-68.1-27-104.4
				c64.5-109.5,264-210.7,344.4-189.5C1066.4,569.5,1022,699.4,1000.6,735.7z M1597.9,892.5c22.8-45.9,13-97.1-21.7-114.3
				c-34.8-17.2-81.4,6.1-104.1,52c-68.7,138.6-70.9,393.4-17,450.8C1479.7,1073.9,1575.1,938.4,1597.9,892.5z"/>
		</g>
		<g transform="matrix(1 0 0 1 3.52 -11.99)">
			<path fill="#64FF39" d="M2065.3,1179.7c27.9-69.3,100.7-250,15.1-400c-32.7-57.3-77.3-90.5-92.5-101.1
				c-84-58.7-173.9-58.3-251.6-58.1c-47.9,0.2-120.9,5.6-207.2,33.7c15.3-17.1,64.9-76.8,63.9-162c-1.2-95.6-65.8-184.8-164.2-226.5
				c39.2,3.4,91.1,12.2,148.4,34.4c37.4,14.5,68.6,31.4,93.5,47.3c50.9,43.3,144.4,135.2,194.6,281.7
				c36.1,105.2,34,192.5,32.5,240.3c-10.3,319.9-238.7,589.7-304.5,663.5c46.2-0.1,123.8-6.3,207.5-45.7
				C1974.6,1405.5,2040.1,1242.4,2065.3,1179.7z"/>
		</g>
		<g transform="matrix(1 0 0 1 1 0)">
			<path fill="#64FF39" d="M1934.5,586c63.8-129.3,198.7-362.9,396.2-494.6c23.4-15.6,29.7-47.1,14.1-70.5
				c-15.6-23.4-47.1-29.7-70.5-14.1c-223.9,149.3-374.5,398.5-440.9,536.1c11.1,26,22.2,52,33.3,78.1
				C1889.3,609.3,1911.9,597.7,1934.5,586z"/>
		</g>
	</g>
</g>
</svg>
